# xmcd CD Database Entry
#
# Track frame offsets:
# 150
# 17397
# 28202
# 51015
# 59512
# 73117
# 85950
# 100095
# 113135
# 134190
# 150205
# 165377
# 179442
# 185445
#
# Disc length: 2646 seconds
#
# Revision: 1
# Processed by: cddbd v1.5.1PL0 Copyright (c) Steve Scherf et al.
# Submitted via: tcd 2.0b
#
DISCID=b70a540e
DTITLE=Simon and Garfunkel - Mrs. Robinson
DYEAR=1900
DGENRE=
TTITLE0=Mrs. Robinson
TTITLE1=For Emily, Whenever I May Find Her
TTITLE2=The Boxer
TTITLE3=The 59th Street Bridge Song
TTITLE4=The Sound of Silence
TTITLE5=I am a Rock
TTITLE6=Scarborough Fair Canticle
TTITLE7=Homeward Bound
TTITLE8=Bridge Over Troubled Water
TTITLE9=America
TTITLE10=Kathy's Song
TTITLE11=El Condor Pasa
TTITLE12=Bookends
TTITLE13=Cecilia
EXTD=
EXTT0=
EXTT1=
EXTT2=
EXTT3=
EXTT4=
EXTT5=
EXTT6=
EXTT7=
EXTT8=
EXTT9=
EXTT10=
EXTT11=
EXTT12=
EXTT13=
PLAYORDER=
